<svg width="24" height="24" viewBox="0 0 24 24" class="hitagi__sc-1apuy4g-0 hmhZOG"><path d="M23.9923 0.856406C24.0575 0.397969 23.6984 0 23.2517 0C23.2161 0 23.18 0.00234375 23.1434 0.0075L18.7499 0.75L6.96136 12.5386L5.14168 10.7189C4.85012 10.4273 4.37716 10.4269 4.08513 10.7189L3.20763 11.5969C2.95592 11.8486 2.91654 12.2433 3.11435 12.5395L5.60762 16.2797L3.11248 18.7744L1.74608 18.0914C1.68936 18.0628 1.31249 17.8973 0.997493 18.2128L0.189842 19.02C-0.0632808 19.2736 -0.0632808 19.6842 0.189842 19.9373L4.06263 23.8102C4.18919 23.9367 4.35513 24 4.52106 24C4.687 24 4.85294 23.9367 4.97997 23.8102L5.78762 23.0025C5.88382 22.9062 5.94731 22.7821 5.96909 22.6478C5.99088 22.5134 5.96987 22.3756 5.90902 22.2539L5.22606 20.8875L7.72073 18.3923L11.4609 20.8856C11.7571 21.083 12.1518 21.0441 12.4035 20.7923L13.2815 19.9148C13.573 19.6233 13.573 19.1498 13.2815 18.8583L11.4618 17.0386L23.2498 5.25L23.9923 0.856406ZM21.1508 4.16672L9.8704 15.4477L8.55228 14.1295L19.8331 2.84859L21.4189 2.58047L21.1508 4.16672Z"></path></svg>