<svg width="24" height="24" viewBox="0 0 24 24" class="hitagi__sc-1apuy4g-0 hmhZOG"><path d="M12 19.2007V4.68679L5.30156 7.47612C5.69531 12.9235 8.35781 16.9739 12 19.2007ZM21.8672 3.92265L12.8672 0.172285C12.593 0.0585457 12.2991 0 12.0023 0C11.7055 0 11.4117 0.0585457 11.1375 0.172285L2.1375 3.92265C1.29844 4.26956 0.75 5.08995 0.75 5.99942C0.75 15.305 6.11719 21.7369 11.1328 23.8277C11.6859 24.0574 12.3094 24.0574 12.8625 23.8277C16.8797 22.1541 23.25 16.3739 23.25 5.99942C23.25 5.08995 22.7016 4.26956 21.8672 3.92265ZM12 21.751C7.42969 19.8476 3 13.9361 3 5.99942L12 2.24905L21 5.99942C21 14.1471 16.3875 19.9227 12 21.751Z"></path></svg>